<?xml version="1.0" encoding="UTF-8"?>
<svg id="Layer_1" data-name="Layer 1" xmlns="http://www.w3.org/2000/svg" viewBox="0 0 393.84723 382.38658">
  <path d="M195.14297,382.24115c-31.25333,0-62.51274.38734-93.75842-.10222-35.66414-.55874-64.09681-15.66391-84.16461-45.23522C5.8547,320.15617.45865,301.15255.33206,280.88017c-.18143-29.05487-.00296-58.1118-.05566-87.16766C.22438,165.03292-.05645,136.3532.01016,107.6741c.05689-24.4939,6.35049-47.2185,21.66719-66.65192C42.46271,14.65025,69.84523.44999,103.57034.17672c40.15773-.3254,80.32207.24235,120.48369.28521,21.11631.02254,42.23665-.04791,63.34836-.44362,21.86773-.40986,41.62122,6.08056,59.84982,17.63062,18.15683,11.50461,30.27086,27.96519,38.46878,47.64541,5.44355,13.06802,7.84622,26.63205,7.87095,40.68366.102,57.98939.42275,115.9801.14421,173.96782-.16469,34.28083-13.82547,62.49006-41.87266,82.55652-17.61875,12.60533-37.83246,19.31561-59.69782,19.4922-32.33892.26128-64.68146.06757-97.02248.06757-.00007.0597-.00016.11935-.00022.17905ZM195.80277,18.56468l-.00013.14129c-27.96182,0-55.92389.06792-83.88544-.02277-20.21174-.06554-38.89859,4.70476-55.41007,16.76517-24.00748,17.53567-36.47408,41.05172-36.59944,70.89585-.23286,55.4309-.40001,110.86205-.63098,166.293-.0569,13.65354,2.96754,26.58329,8.43507,39.05626,7.40885,16.90172,19.04571,29.86554,35.01012,39.13966,15.17174,8.81362,31.58157,13.0275,48.94559,13.0572,35.88833.06131,71.77729-.33269,107.6662-.48714,23.44364-.10093,46.88778-.08246,70.33137-.1917,3.28588-.01529,6.61146-.20288,9.84841-.73666,41.41373-6.82941,71.98531-36.951,74.71804-80.73793.77378-12.39803.14618-24.88307.17144-37.32823.0876-43.09917.20735-86.19829.23986-129.29751.00478-6.34117.08711-12.74252-.68953-19.01409-4.45379-35.96473-31.97381-66.76027-67.41133-74.52135-10.38224-2.27378-21.29617-2.72344-31.9832-2.88294-26.2468-.39172-52.50339-.1281-78.75601-.1281Z"/>
  <path d="M195.80277,18.56468c26.25261,0,52.50921-.26362,78.75601.1281,10.68703.1595,21.60095.60916,31.9832,2.88294,35.43752,7.76108,62.95754,38.55662,67.41133,74.52135.77664,6.27157.69432,12.67292.68953,19.01409-.03251,43.09921-.15226,86.19834-.23986,129.29751-.02526,12.44516.60233,24.9302-.17144,37.32823-2.73273,43.78693-33.30431,73.90853-74.71804,80.73793-3.23695.53378-6.56254.72137-9.84841.73666-23.4436.10924-46.88773.09077-70.33137.1917-35.88891.15445-71.77787.54845-107.6662.48714-17.36402-.02969-33.77386-4.24357-48.94559-13.0572-15.96441-9.27412-27.60127-22.23794-35.01012-39.13966-5.46754-12.47297-8.49198-25.40272-8.43507-39.05626.23096-55.43095.39811-110.8621.63098-166.293.12536-29.84412,12.59196-53.36018,36.59944-70.89585,16.51147-12.06041,35.19833-16.83072,55.41007-16.76517,27.96155.0907,55.92362.02277,83.88544.02277l.00013-.14129ZM195.4322,349.31215c.0004.01359.0008.02719.00125.04078,1.70791,0,3.41587-.00572,5.12378.00085,28.44651.10987,56.89368.36744,85.33893.22546,6.77374-.03381,13.71127-.70415,20.27434-2.30671,12.45656-3.04163,24.18124-8.12288,32.98351-17.89434,14.9522-16.59836,21.89667-36.11851,21.5189-58.60257-.61503-36.60498-.72826-73.22027-.80249-109.83171-.03913-19.28666.56035-38.57379.6691-57.86186.07884-13.98666-4.18571-26.82391-12.31874-38.0534-15.93745-22.00524-37.53295-33.49902-64.96532-33.4616-21.4812.02931-42.96259-.05382-64.44365.0008-13.06171.0332-26.12282.2829-39.18463.34743-24.78543.12243-49.57158.12136-74.35657.29529-10.79402.07573-21.16617,2.766-30.71427,7.49323-21.20646,10.49926-34.16868,27.77309-39.49939,50.77692-.68582,2.95958-1.41613,6.01829-1.37276,9.02021.36306,25.13514.83985,50.26923,1.42588,75.40028.17891,7.67218,1.39621,15.35579,1.11441,22.99643-.85878,23.28507-2.18191,46.5536-3.3917,69.82508-.92653,17.82293,3.87084,34.07629,13.46074,48.95561,12.71943,19.73506,31.21751,30.7724,54.31303,32.0796,23.00155,1.30184,46.12451.46702,69.19434.5493,8.54365.0305,17.08752.00492,25.6313.00492Z" fill="#fff"/>
  <rect x="30.51883" y="31.54879" width="332.36967" height="318.07211" rx="69.87095" ry="69.87095"/>
  <g>
    <path d="M311.34185,261.36739c1.50492,1.33323-8.01524,9.16718-8.88178,10.05616-.73652.75559-5.21416,5.49487-5.3813,5.85568-.82257,1.77574,1.16048,4.32958-1.24495,8.09789-2.73508,4.28473-6.22501,3.66813-10.6774,3.33433-5.36319,5.84663-10.85655,11.62443-16.36255,17.33333-3.5375,3.66786-7.76475,5.90658-9.35822,11.22152l-8.84639-.28649.01848-1.99405.69887-.70345c6.00333.24051,6.78719.3484,10.19544-4.30402,5.81628-7.93947,12.02531-14.22164,19.19411-21.0302.74314-.7058,1.66719-1.13005,2.38633-1.85915.50721-.95181-1.31881-2.89754-1.56472-4.07892-1.65038-7.92844,6.95624-12.40366,13.46422-8.29992,1.83116-1.42438,3.12076-3.59113,4.65672-5.17246,1.47356-1.51709,7.67854-7.87043,9.14318-8.16211.7932-.15797,1.73674.04765,2.55995-.00814ZM287.82574,277.36637c-3.09665.70293-3.11874,6.57837,0,7.28559,7.0556,1.59996,7.05298-8.88659,0-7.28559Z" fill="#fff"/>
    <path d="M284.95543,313.55311c-2.37509,2.36042-4.91076,4.59173-7.29964,6.96623-2.99531,2.97728-6.07028,9.0074-11.21069,6.09504l65.46764-65.96227,3.74825-2.09347c.87783,5.19975-4.74257,8.11851-7.959,11.44665-14.04662,14.53448-28.3344,29.22472-42.74655,43.54782Z" fill="#fff"/>
    <rect x="89.92107" y="246.17284" width="4.26695" height="95.43401" transform="translate(-180.29216 150.11032) rotate(-44.77714)" fill="#fff"/>
    <path d="M284.21543,89.24903c-3.67894-1.66322-6.93928-5.29371-9.83472-8.17779-3.50319-3.48945-7.71502-7.80094-10.9838-11.46676-2.62599-2.94495-4.30765-7.84845-8.92499-8.38796-3.07132-.35887-4.85771,1.79748-3.39589-3.24298,8.25324-2.99322,10.97466,5.69526,15.59403,10.69641,3.31092,3.58456,7.47656,6.9529,11.01178,10.50343,2.2239,2.23352,5.84295,7.19963,8.16432,8.71208,1.13733.74101,5.07001-.98497,7.96027.88808,1.33393.86446,3.24448,3.83942,3.48065,5.41267.24408,1.62592-.81089,4.58903-.67516,4.89404.77524,1.74204,9.96815,9.00002,12.16607,11.67175,1.1427,1.38903,4.00134,5.44482-.37717,4.13028-1.87033-.56152-10.88892-11.20256-12.96212-13.27245-1.0512-.5667-3.02746.95186-4.47971,1.15372-7.92339,1.10133-12.80553-7.81908-6.74356-13.51451ZM287.82503,91.67201c-4.22258,1.26642-2.78588,8.24211,2.11899,7.30376,5.81934-1.1133,2.56238-8.70777-2.11899-7.30376Z" fill="#fff"/>
    <rect x="44.58516" y="80.78471" width="94.72" height="4.31927" transform="translate(-31.74595 88.79137) rotate(-44.76025)" fill="#fff"/>
    <rect x="299.36152" y="35.08202" width="4.26143" height="94.34977" transform="translate(31.24075 239.18969) rotate(-45.40411)" fill="#fff"/>
    <path d="M300.31385,51.62979c12.5553,12.44456,24.74631,25.30318,37.21922,37.84693,1.46333,1.36546.51735,2.75492.46872,4.44141l-4.92094-3.72722-43.2746-43.71746c-1.16628-.74274.17114-4.37311,1.17495-3.98969,3.04752,3.11301,6.24264,6.08328,9.33265,9.14604Z" fill="#fff"/>
    <path d="M56.90896,282.88116c12.69804,12.31214,25.1654,24.87957,37.63362,37.42902.90498.91087,2.07194,1.52911,3.0659,2.54677.78905.80786,5.65461,5.9461,5.83589,6.33683.75197,1.62077-.35738,2.64188-1.87127,3.10498l-43.27739-43.09365c-1.96281-1.87166-2.34899-3.76624-1.38676-6.32395Z" fill="#fff"/>
    <path d="M63.14733,87.53583c-1.08553,1.02325-4.10592,4.7769-5.62355,4.91173-2.13955-.49826-1.75545-2.39673-.39453-3.68176,12.67829-12.41086,24.64494-25.57136,37.41341-37.88816,2.44056-2.35422,5.08478-5.24546,7.73112-7.23543.49788-.37439.57395-1.02833,1.41585-.48894,2.17573,1.39395-1.40017,4.98003-2.57993,6.34013-10.58394,12.20175-26.04031,26.80441-37.96237,38.04243Z" fill="#fff"/>
    <path d="M336.59874,284.28548c.67512,3.30759-1.73211,5.45222-3.72707,7.7275-10.86546,12.39214-24.80253,24.52101-36.50701,36.45763-1.4356,1.46407-3.29295,5.52575-5.87186,3.55708-1.68272-1.28455,1.48438-4.16196,2.59784-5.42792,12.74358-14.48891,28.84524-27.45108,41.85108-41.87102l1.65702-.44326Z" fill="#fff"/>
    <path d="M209.71725,311.9726c5.17688-1.16523,5.55245,6.73292,2.13985,7.75921-5.21908,1.56956-7.4284-6.56885-2.13985-7.75921Z" fill="#fff"/>
    <path d="M182.11624,312.44824c6.16933-1.81144,6.66396,6.48234,2.12984,7.31051-4.17609.76277-5.31942-6.37399-2.12984-7.31051Z" fill="#fff"/>
    <path d="M209.72546,55.6488c5.85743-1.19379,5.11815,10.04839-.98547,6.86962-2.94495-1.53374-1.95706-6.26991.98547-6.86962Z" fill="#fff"/>
    <path d="M202.82976,315.15812l-5.4014,1.88173-8.62521-.95402c-.15791-.79008.19168-.9632.79833-1.30174.57129-.31881,6.25513-1.96801,6.93082-1.99187,2.75468-.09728,3.85148,2.02787,6.29746,2.3659Z" fill="#fff"/>
    <path d="M180.96042,62.00448c-1.37714-2.63496-.70394-6.22949,2.70874-6.25046,4.8578,2.34658,2.83094,8.95737-2.70874,6.25046Z" fill="#fff"/>
    <path d="M201.42671,59.76804c-2.6659,1.25006-4.94794,2.87156-7.90788,1.13793-3.42581-2.00648,1.18561-4.46054,3.42688-4.37652,1.44998.05436,4.40559,1.46049,4.481,3.23859Z" fill="#fff"/>
    <path d="M57.83648,196.82162l.06739-3.67781c.98646-.52325,4.25171-1.01099,4.87394-.09426.23449.34547.77646,3.66336.20701,4.01348l-5.14834-.24141Z" fill="#fff"/>
    <path d="M62.4495,188.33515l-4.09367.01412-.51921-4.1598,4.69376-.26924c.93703.6854.41272,3.42669-.08089,4.41492Z" fill="#fff"/>
    <path d="M229.93562,56.9974l.29256,4.2143-4.03948.23099c-1.43697-3.85098-.23666-5.07907,3.74692-4.44529Z" fill="#fff"/>
    <path d="M281.88002,326.3758c-.99817-.95597,4.99645-6.29663,5.61548-5.85917,3.3477,2.49802-4.22798,7.18802-5.61548,5.85917Z" fill="#fff"/>
    <path d="M222.01144,56.96812l.00017,4.68181h-4.21427s.20657-4.24156.20657-4.24156c.57319-.8237,2.98934-.32037,4.00753-.44025Z" fill="#fff"/>
    <path d="M176.17485,56.96789l-.00017,4.68181-3.77383-.20633c-.85706-.59466-.29131-3.38766-.44027-4.47548h4.21427Z" fill="#fff"/>
    <path d="M159.8038,61.17881l-4.22333.26444c-.89222-.63887-.30138-3.37579-.45786-4.4753l4.20736-.46522.47383,4.67608Z" fill="#fff"/>
    <path d="M306.66738,50.42723c2.99297-1.45237,8.28798-.03504,5.16895,3.52758-2.28209,2.60664-3.84276-2.1443-5.16895-3.52758Z" fill="#fff"/>
    <polygon points="159.80389 314.21569 159.36385 318.23113 155.16571 317.91721 154.66958 314.70836 159.80389 314.21569" fill="#fff"/>
    <path d="M336.06667,193.14788l.06912,3.67375-4.94998-.45576.31491-3.24527c1.60697-.16808,3.05402-.89087,4.56595.02728Z" fill="#fff"/>
    <path d="M59.24192,72.87285l4.68196,1.17397c-.01078.36345-3.61377,5.57086-4.68196,5.37414v-6.54811Z" fill="#fff"/>
    <polygon points="238.3773 56.96964 238.38188 61.64993 234.16757 61.64992 234.17389 57.44223 238.3773 56.96964" fill="#fff"/>
    <polygon points="151.38559 314.21503 151.38461 317.96134 146.28068 317.44805 146.21575 314.43419 151.38559 314.21503" fill="#fff"/>
    <polygon points="222.47934 314.21503 222.47932 317.96161 217.82284 317.93428 217.33129 314.21961 222.47934 314.21503" fill="#fff"/>
    <path d="M246.80089,57.43565l-.00045,4.21408-4.20713.00236-.27419-3.76062c.647-.88318,3.3812-.30361,4.48176-.45582Z" fill="#fff"/>
    <polygon points="302.93297 304.38016 305.56266 300.68785 308.50384 303.29041 305.4899 306.15724 302.93297 304.38016" fill="#fff"/>
    <polygon points="151.8533 57.43561 151.85377 61.1822 147.39049 61.20197 147.17149 57.43578 151.8533 57.43561" fill="#fff"/>
    <path d="M167.28818,56.96788l-.00005,4.68205-3.74511-.00066c.23073-1.58328-.72786-3.15935.0638-4.62042l3.68136-.06097Z" fill="#fff"/>
    <path d="M88.65944,70.57017l1.88629,2.94-3.01319,2.52207c-3.28959-2.01776-2.41364-4.69436,1.1269-5.46208Z" fill="#fff"/>
    <path d="M335.6679,184.18853v4.21384l-3.77371-.20627c-.73366-.51211-.54268-2.71971-.23243-3.56798l4.00614-.43959Z" fill="#fff"/>
    <path d="M81.56011,295.10704c1.56081-.43594,2.50747,1.08516,3.37009,2.10378l-2.60854,2.41083-2.93272-2.07413c-.09833-.58637,1.64524-2.29359,2.17117-2.44049Z" fill="#fff"/>
    <polygon points="247.26822 314.21537 246.82835 317.75442 242.79303 317.52193 242.58694 314.21537 247.26822 314.21537" fill="#fff"/>
    <path d="M176.64241,314.21501l-.06745,3.21053c-3.51558,1.26523-5.22356.8873-4.61405-3.21017l4.6815-.00036Z" fill="#fff"/>
    <path d="M230.43025,314.21536c-.0874.94174.34125,2.99467-.44008,3.53973l-4.24146.20575.53654-3.67829,4.145-.06719Z" fill="#fff"/>
    <path d="M335.19545,296.91401l.47181,5.61262-4.21181-.47349c-.71884-.84074,2.96665-5.98532,3.74-5.13912Z" fill="#fff"/>
    <path d="M89.09506,301.21036c.16061.09474,2.13803,2.93702,1.95105,3.17841l-3.41074,1.36051c-.85282-.61781-2.41839-1.80482-2.23532-2.95222.04721-.29591,2.77181-2.13126,3.69501-1.5867Z" fill="#fff"/>
    <polygon points="238.38122 314.21554 237.93398 318.2319 234.23832 317.89437 234.28106 314.79915 238.38122 314.21554" fill="#fff"/>
    <path d="M63.4381,302.03737l-4.66615.48863.47255-4.6789c.48761-.50881,5.12317,2.45215,4.1936,4.19027Z" fill="#fff"/>
    <path d="M311.64209,295.07428l2.45916,2.1378-2.1166,2.91222c-.86313.16977-2.47475-1.36005-2.94408-2.10882l2.60152-2.9412Z" fill="#fff"/>
    <path d="M335.19583,72.87065l.46738,6.54795c-.40174.47787-2.901-1.98911-3.0163-2.31074-.32419-.90429,1.18624-3.02832-.7147-2.83791l-.0096-.92672,3.27322-.47257Z" fill="#fff"/>
    <rect x="163.53575" y="314.20926" width="4.22588" height="3.75813" fill="#fff"/>
    <path d="M64.3846,99.53554c.7204.65083-4.28492,5.1105-5.60783,4.67244l.52894-4.14463,5.07889-.52781Z" fill="#fff"/>
    <path d="M314.04667,79.80197l-2.47937,1.8512-2.44555-2.4595c.91723-3.27362,5.0255-2.60293,4.92492.6083Z" fill="#fff"/>
    <path d="M84.43093,78.07956c.60124,1.04231-1.47464,2.97892-2.52005,3.2398l-2.53849-2.12486,2.1821-2.53093,2.87644,1.416Z" fill="#fff"/>
    <path d="M81.22643,50.42467c.92309.10812,6.10863-.43924,6.06951.69916-1.36553,1.91624-2.68057,2.18366-4.93297,2.43649l-1.13654-3.13564Z" fill="#fff"/>
    <path d="M308.47156,74.21472c-.11295.19852-2.36204,1.31611-2.86755.93335-2.82552-1.68138-1.66476-2.90197.36127-4.60455.70003.86027,3.19235,2.46529,2.50627,3.6712Z" fill="#fff"/>
    <path d="M311.78878,322.19158l.49151,3.24902c-.88455-.05716-5.15805.36867-5.13634-.69946,1.28318-1.37219,2.5358-2.90436,4.64483-2.54956Z" fill="#fff"/>
    <path d="M113.49723,50.42722l-2.59855,3.2555-2.5456-1.86784c1.20069-2.21207,3.06108-1.93685,5.14416-1.38766Z" fill="#fff"/>
    <path d="M86.8374,325.43808l-5.14695.00449.21136-2.36175c1.07832-1.60275,4.37445.99659,4.93559,2.35725Z" fill="#fff"/>
    <path d="M334.16221,124.88523c.36062.62627-.00605,1.93003.10208,2.71299l-2.81066.00051.0072-5.61495c1.02104.2627.46595,1.18877,1.10811,1.89257.44026.48252,1.48731.82484,1.59328,1.00887Z" fill="#fff"/>
    <rect x="330.97907" y="176.70149" width="4.22291" height="2.34993" transform="translate(-.25267 .47396) rotate(-.0815)" fill="#fff"/>
    <path d="M62.5157,176.23754l.00224,2.81031c-5.31834.81552-4.56526-3.19708-.00224-2.81031Z" fill="#fff"/>
    <polygon points="62.04808 132.27132 62.04612 135.08079 59.28972 134.56751 59.68283 132.4801 62.04808 132.27132" fill="#fff"/>
    <rect x="59.70629" y="140.68974" width="2.34532" height="2.81195" fill="#fff"/>
    <path d="M112.55989,325.90803c-.18401.16256-4.52746.23604-4.67269-.92839,1.73184.85203,2.28553-1.3702,2.56448-1.39953.24962-.02625,2.52384,1.48537,2.1082,2.32792Z" fill="#fff"/>
    <g>
      <path d="M143.43189,57.90574l.00242,3.27648c-3.04202-.09449-7.96677-.39615-10.09907,2.29556-1.04545,1.31973-.62039,3.62574-2.06687,4.94897l-20.83164,21.29732-.13759,1.03187c3.80538,5.35409-.24675,12.54615-6.87597,12.07917-1.46739-.10337-3.84831-1.54125-4.34279-1.34435-.14654.05835-1.53738,2.09673-1.93336,2.49279-4.26984,4.27068-8.49888,9.1807-13.5826,12.3937,7.37681,5.73939,5.72349,15.05225-3.30818,17.58151,1.0904,14.8564.25166,29.88156.4711,44.80178,7.9943,2.68783,8.16901,15.21466-.45804,17.38599.14763.9319.47654,1.79782.50946,2.75665.49148,14.31566-.4066,28.73195-.02798,43.05755.24373,1.25129,3.66955,1.87764,5.15045,3.73627,4.34199,5.44945,2.07824,10.56646-2.79618,14.49852,1.06384.8464,2.10548.97946,3.27749,1.85816,3.26274,2.4462,8.40801,8.29023,11.47257,11.46561.36712.3804.5315.88042.74864,1.3429,2.2699-.05595,3.78756-1.90398,6.22526-1.82596,6.58788.21086,9.44406,8.66369,5.59646,13.58571,5.20197,5.58667,11.33173,10.70989,16.40794,16.3645,2.18596,2.43504,7.32362,10.7316,10.31085,11.20435,1.17459.18589,6.47747-.19554,6.73026.054l.49574,2.77562-9.29197.4002c-.36633-1.58743-1.96215-3.32906-3.09904-4.61292-7.57384-8.553-16.77715-15.75219-24.10765-24.57554-1.67196.10088-2.4994.92046-4.4333.74921-4.64027-.41089-7.32043-4.70566-6.75565-9.11666.11713-.9148,1.13364-1.81301.7158-2.59685-.30883-.57934-4.08152-3.15634-4.95488-3.9695-3.78551-3.52455-9.07684-8.0846-10.80162-12.8162-12.29677,1.71906-16.61567-13.93681-4.68552-17.88539-.27295-1.80041.56469-3.70217.56715-5.32142.01607-10.59166-.30544-21.15979-.02121-31.78402.0418-1.5624.27886-8.83202-.47584-9.38491-7.80173-.98395-9.24778-11.23125-3.72311-15.86153,2.38765-2.00111,3.58415-.07115,4.12436-4.29502.37396-2.92397-.39151-5.28352-.43172-7.87631-.14768-9.52369.54579-19.11415.52749-28.54835-.00364-1.87464-.91199-4.17324-.56186-6.265-12.60348-3.69798-6.69543-20.939,5.6633-17.35782.01883-.64996-.08222-1.37064.10242-2.00265.48854-1.6723,7.05656-7.83648,8.78078-9.4622,1.32965-1.25369,6.20275-4.48763,6.09548-6.03492-.05388-.77712-.79516-1.528-.92794-2.41084-.49263-3.27551,2.66042-7.45606,5.93837-8.042,1.68426-.30107,4.51454.6086,5.26449.13772.49084-.30819,2.05045-2.95807,2.80069-3.76753,4.99989-5.39456,11.08121-10.15347,16.16104-15.64406,2.3569-2.54748,2.31575-2.311,4.75502-4.36882.95234-.80342,4.00211-6.40137,5.05456-6.40137h6.78197ZM108.00298,95.31303c0-2.00012-1.62142-3.62153-3.62153-3.62153s-3.62153,1.62142-3.62153,3.62153,1.62142,3.62153,3.62153,3.62153,3.62153-1.62142,3.62153-3.62153ZM83.98016,124.77529c0-2.76244-2.2394-5.00183-5.00183-5.00183s-5.00183,2.2394-5.00183,5.00183,2.2394,5.00183,5.00183,5.00183,5.00183-2.2394,5.00183-5.00183ZM75.28862,191.06063c5.40981,4.77998,10.60742-4.93774,5.17543-7.74534-5.0556-2.61305-9.07363,4.30097-5.17543,7.74534ZM83.9481,251.73372c0-2.74498-2.22525-4.97023-4.97023-4.97023s-4.97023,2.22525-4.97023,4.97023,2.22525,4.97023,4.97023,4.97023,4.97023-2.22525,4.97023-4.97023ZM103.54377,277.36088c-4.3434.98295-3.78549,9.07503,2.14266,7.29176.4394-.13218,2.24532-1.85338,2.42934-2.25017,1.17185-2.52673-1.73499-5.68363-4.572-5.04159Z" fill="#fff"/>
      <circle cx="78.97833" cy="124.77529" r="5.00183"/>
      <circle cx="78.97787" cy="251.73372" r="4.97023"/>
      <path d="M75.28862,191.06063c-3.89821-3.44437.11982-10.35839,5.17543-7.74534,5.43199,2.8076.23438,12.52532-5.17543,7.74534Z"/>
    </g>
    <path d="M103.54377,277.36088c2.83701-.64204,5.74386,2.51486,4.572,5.04159-.18403.39679-1.98994,2.118-2.42934,2.25017-5.92815,1.78327-6.48606-6.30881-2.14266-7.29176Z"/>
    <circle cx="104.38145" cy="95.31303" r="3.62153"/>
    <g>
      <path d="M246.16703,78.18054c6.73884,6.86741,13.4875,13.83541,20.49896,20.42769.85839.80707,2.57916,1.55918,3.03737,2.10757,1.06348,1.27278.4785,3.50279,1.42634,4.65405,1.3123,1.59393,6.46376,5.1703,8.41585,7.01898,2.87212,2.71997,5.63669,5.60996,8.31666,8.52133l.08741,26.93576,13.09932,13.20426-.523,56.75526c-1.06915.30551-1.84213.52259-2.76602,1.21194-3.10877,2.31956-7.60389,8.37461-10.49769,11.48361-1.2362,1.32813-2.70229,2.252-3.89353,3.59002-.90103,8.50094.27343,16.90502-.79184,25.40059-1.84479,1.30114-3.9865,2.65328-5.62382,4.19834-1.03609.97771-1.63461,2.19489-2.54663,3.06604-11.41639,10.90484-22.87634,21.68634-33.69692,33.18734-3.93326.37155-7.98814.34039-11.93762.26174-4.27854-.08521-10.37012-.08343-14.47576-.49134-6.12331-.60838-13.19532-7.3292-17.31002-11.6798-4.59553,4.44879-9.48184,10.64355-16.35374,11.23297-8.7254.7484-18.25373-.77267-27.05247,1.31292-9.16366-9.86891-18.94731-19.14834-28.63536-28.44502-4.53245-4.34935-8.50565-9.48492-14.02605-12.63272l.16399-25.8901-18.06802-16.54341c.63949-18.98296.20768-37.91598-.10494-56.8691,5.25846-3.73873,8.75595-9.52083,13.98951-13.26569l-.42557-26.95853c6.08838-4.29207,10.29582-12.28521,17.27364-14.86706l-.00158-3.96041c10.70941-7.8273,19.33918-18.19242,28.42141-27.76131,4.4839.79201,8.94617-.10989,13.50396-.06826,4.41804.04036,8.93288.60766,13.56402.51238,2.71776-.05591,5.63364-1.00983,8.38735-.48096,2.58491.49644,7.12018,7.43991,9.36312,7.44152,1.5649.00112,6.08943-5.89155,7.92589-7.0089l36.03029-.43128c1.0657.20402,4.14596,3.7295,5.22546,4.8296ZM194.4136,194.94831v-108.27766l-8.70665-8.05481-30.72007.43319c-8.00092,6.59287-14.88758,16.10654-22.77488,22.59433-1.09685.90223-2.31353,1.81953-3.73619,2.12906l.92652,7.45571-6.07232-.72664-11.75524,12.64817c.76734,6.8194.70133,14.1555.53879,21.07023-.04116,1.75083-1.05725,3.57209-.24201,5.35218l62.35694,63.00814c-1.05351,21.77123.358,43.57003.09535,65.41104-.01605,1.33501-.48962,2.4749-.5093,3.7002-.06914,4.30586-.09266,8.62619.49149,12.8815l7.01379-.46515c.02908-7.2509-.03888-14.51459-.02166-21.77082.00622-2.62263-.00229-5.29627,0-7.91264.01636-18.71231.03674-37.42389.00882-56.13555-2.79287-3.24136-5.82727-6.70267-8.86397-9.84491-1.67288-1.73102-11.09611-11.19622-12.41528-11.43855-2.5457-.46765-3.52001.81696-5.8572-1.62636-6.22905-6.5119,1.66756-16.45786,8.59952-10.47037,1.87875,1.62277,2.54451,3.7877,2.15173,6.21794-.17452,1.07978-1.32729,2.07469-.69735,3.06189,7.874,6.77947,14.90597,14.39166,21.98185,21.96116,1.17652,26.11598-1.12646,52.29699.27535,78.3482.11281,2.09644-.12446,4.2376-.01461,6.33341l7.93619-8.19542.03051-80.8281-2.38538-1.45596-21.70981-22.25399c-1.35473-8.42076-.64004-17.21333-.50253-25.73614l-14.45167-14.96859-6.80221-.91437c-2.40568,12.18704-18.13395,16.89969-25.83667,6.42537-9.52172-12.94784,3.17917-28.9651,17.89157-22.56879,4.80991,2.09114,7.14376,6.39592,7.98462,11.42463,2.60563.3918,6.93173-.7274,9.08892.96833l16.96295,18.11621.32547,25.39924c6.19888,4.94303,11.79272,13.24541,18.00835,18.00612.47137.36104.59005.90219,1.4063.69858ZM212.18704,145.60363v32.50668l-5.15296-.26792c1.28758-11.03115-.34675-22.09508.01723-33.16499l9.80209-11.23778c-4.5516-1.82541-4.17519-2.33915-4.21782-7.03289-.04223-4.65042-.22877-9.25662-.46783-13.99208-.12649-2.5055.43698-6.18741.00888-8.42788-.26011-1.36131-2.75738-2.93861-3.6532-4.29806-6.68623-10.14667,7.81505-19.73746,14.88757-10.67808,4.4921,5.75405.41288,14.58653-6.5732,15.46971l1.4343,27.79309c5.43645-3.89635,9.40682-10.28021,15.35674-13.16725l.49213-4.76793c-8.4774-5.42288-5.65925-17.92236,4.97832-17.16164,10.56466.75551,10.64825,16.6015.19318,18.00264l-.38412.55132c-1.11271,5.16449,2.33643,11.47589-1.46417,15.60284,2.57964.35503,5.03606.90111,7.60639.00938,1.06079-1.64964,1.30577-3.51084,2.30663-5.29252,5.70351-10.15307,23.02467-8.97763,26.32257,2.4942,5.81124,20.21453-22.55499,28.78052-27.86994,8.46231l-8.15632.38732-13.20991,14.85341c-.6665,7.56261.55514,15.83348-.07799,23.30811-.3556,4.19817-1.95342,3.27575-4.22355,5.59862-2.50371,2.56188-4.9803,5.86001-7.47496,8.42759-4.14786,4.26911-8.62207,8.26853-12.79972,12.50102.07881,20.28381.43035,40.64092.18117,60.9413-.01638,1.33487-.49167,2.47728-.5093,3.7002-.05606,3.88827-.60982,12.10145.0294,15.444.25586,1.33792,5.25072,6.51311,6.53486,7.49667.47137.36104.59005.90219,1.4063.69858v-83.48839c6.79143-7.14787,13.46088-15.74096,21.07068-21.96475.51449-.42078,1.18986-.6563,1.84732-.72657.31668-.42022-2.90504-3.88999-.67996-7.45523,4.46661-7.15684,14.86848-.48421,11.51854,6.84157-1.57038,3.43417-4.12808,4.63282-7.79086,3.42223-7.58889,6.51011-14.57199,14.06289-21.09759,21.73105l.74454,85.84958h7.01583c.1703-21.27842-.21905-42.58046-.01998-63.86307.01754-1.87566-.00066-3.7648.02265-5.59946.05591-4.40105.54071-8.63134.08312-12.98839,13.7091-15.41306,28.97777-29.31656,43.42613-44.05413,6.0821-6.20384,11.69622-12.94821,18.45543-18.49461l.74231-26.81784c-5.93386-4.36723-10.49323-11.44478-17.26258-14.41106l.1706-4.6283c-5.41911-2.32312-8.53474-7.25418-12.63095-11.21144-4.6624-4.50424-9.46988-8.96545-14.29901-13.29656-6.76358-.58206-13.56762-.1109-20.34405-.23572-3.02335-.05569-7.50258-1.21268-10.52988-.27858-2.0009.6174-5.38603,5.70286-7.72383,6.77556l-.69434,1.64427c.24898,33.42228.13452,66.85111.00461,100.0981-.01007,2.57731.04604,5.16198.02244,7.73408.8107.21101.93477-.33636,1.40386-.69624,6.34869-4.87059,11.05884-13.35624,18.27666-17.38483l.52502-26.4881,15.45204-17.28459c.56844-3.3472-.43786-6.72748.35201-10.17085-1.09529-.08841-1.82349.77945-2.58248,1.38835-7.39711,5.93444-13.53152,15.09054-20.80108,21.29391ZM214.86568,90.27087c-4.8648,1.05987-3.43145,9.52305,1.26098,9.25519,6.10345-.3484,5.30909-10.68657-1.26098-9.25519ZM238.69428,101.52465c-5.67241.1674-5.88747,8.568-.53928,8.79724,5.42214.23241,5.88763-8.95508.53928-8.79724ZM144.33887,133.75442c0-5.48921-4.44989-9.9391-9.9391-9.9391s-9.9391,4.44989-9.9391,9.9391,4.44989,9.9391,9.9391,9.9391,9.9391-4.44989,9.9391-9.9391ZM269.8486,133.67883c0-5.43963-4.40969-9.84933-9.84933-9.84933s-9.84933,4.40969-9.84933,9.84933,4.40969,9.84933,9.84933,9.84933,9.84933-4.40969,9.84933-9.84933ZM168.68888,216.46352h-26.4263c-2.906-5.88134-7.00318-1.05532-11.78816-3.64671-9.23357-5.00058-4.12558-19.95636,6.53794-17.76252,5.87649,1.20899,9.19438,10.45916,5.02117,15.06514,3.35126,3.28554,7.17225,1.71376,10.96738,1.64755,3.81565-.06657,8.56733.4418,12.20289.04218.70729-.07774,1.16093-.04448,1.60482-.72448l-58.68951-58.21203-9.51769,10.61607.60101,36.63424,6.13558.88025,24.81769,24.23707c12.93233-.9184,25.97101-.88127,38.99916-.8286.17851-.50495-.466-1.02106-.466-1.16619v-6.78197ZM226.68642,211.7863h20.34591c.49459,0,3.88429-.70234,3.97723-1.17976-8.28021-12.18206,12.8906-22.97637,16.86075-8.90045,2.3778,8.43034-5.52955,14.16483-13.26621,11.0772-1.15504.29396-1.64121,2.51157-2.32348,3.07721-1.57966,1.30963-18.49317.35136-22.10576.58369-1.63078.10487-3.20706.75884-4.8916.48705v7.95128h39.28865c.06236,0,.06414-.76503.45227-1.16231,2.24272-2.29557,4.68947-4.38582,6.55123-7.03517,4.97206-3.44962,11.28151-12.52364,15.93416-15.40322,2.0868-1.29155,5.17232-1.11511,7.4621-.7203l.47826-38.02353-9.69058-9.63487-59.07292,58.88318ZM160.88742,179.86467c0-1.388-1.1252-2.5132-2.5132-2.5132s-2.5132,1.1252-2.5132,2.5132,1.1252,2.5132,2.5132,2.5132,2.5132-1.1252,2.5132-2.5132ZM237.99604,180.24346c0-1.41182-1.1445-2.55632-2.55632-2.55632s-2.55632,1.1445-2.55632,2.55632,1.1445,2.55632,2.55632,2.55632,2.55632-1.1445,2.55632-2.55632ZM139.19091,204.7756c0-2.44231-1.97988-4.42219-4.42219-4.42219s-4.42219,1.97988-4.42219,4.42219,1.97988,4.42219,4.42219,4.42219,4.42219-1.97988,4.42219-4.42219ZM258.36925,200.1895c-5.24635.5027-6.27236,10.9335,1.55935,9.05523,5.81658-1.39499,3.96725-9.58478-1.55935-9.05523ZM154.65722,249.67179h14.03166l.4684-7.48138-18.49028-.46652c-1.31084.32729-.56967-2.54148-.26041-2.97796,1.06803-1.50739,15.44189-.32015,18.28229-1.23492v-7.24969c0-.10677.88733-.62325.23212-.70385l-41.06144.4785c-2.44603-2.9813-5.24586-5.77549-8.03529-8.43985-3.4047-3.25204-14.49144-14.68889-17.91984-15.75492-.6796-.21132-2.72905-.82042-3.15003-.13642l.34544,9.25882c6.3291,4.70917,10.8244,11.54725,17.11588,16.32146l.62783,26.27148c4.03522,1.28822,6.4253,5.5461,9.50417,8.49784,9.6414,9.24332,19.55333,18.12568,28.51777,28.07636,2.58025,1.48196,10.55839-1.34762,13.81883.4421l.48048-39.95434-14.92433-1.2516.41677-3.69512ZM295.44156,214.82649v-9.5883c-3.72531.48233-5.6888.92612-8.64278,3.28414-7.13822,5.6981-13.847,14.67221-20.67751,20.94975-3.34556-.32933-7.04108.58362-10.19461.59186-9.37076.02448-19.67491-1.62578-29.0302-.52801-.68072.07988-1.20253.05788-1.61321.7254v7.01583l.70158.70158h17.30572c1.92599,2.28414.32919,4.2095-2.33861,4.2095h-15.66869l.46772,7.48355h10.52375c1.19605,0,2.41679,2.56013,1.35607,3.32507-3.90949,1.42615-8.24773.76141-12.3504,1.34972l-.26058,40.2582c.8781,1.25499,6.89059.00804,8.44871-.03126,1.67092-.04215,3.32118,1.09005,5.37033.22303.96706-.40918,6.40473-7.27162,7.71922-8.64898,4.05125-4.24501,8.48169-8.07484,12.64737-12.1419,5.91324-5.77324,11.29303-12.28672,18.22652-16.85263l.31349-26.34667c6.62657-4.45183,10.50151-12.34957,17.69612-15.97987Z" fill="#fff"/>
      <path d="M194.4136,194.94831c-.81625.20361-.93493-.33754-1.4063-.69858-6.21563-4.7607-11.80948-13.06309-18.00835-18.00612l-.32547-25.39924-16.96295-18.11621c-2.15719-1.69573-6.48329-.57653-9.08892-.96833-.84085-5.0287-3.1747-9.33348-7.98462-11.42463-14.7124-6.39631-27.41328,9.62095-17.89157,22.56879,7.70272,10.47432,23.43099,5.76167,25.83667-6.42537l6.80221.91437,14.45167,14.96859c-.13751,8.52281-.85221,17.31538.50253,25.73614l21.70981,22.25399,2.38538,1.45596-.03051,80.8281-7.93619,8.19542c-.10985-2.09581.12742-4.23697.01461-6.33341-1.40181-26.05121.90117-52.23222-.27535-78.3482-7.07588-7.5695-14.10785-15.1817-21.98185-21.96116-.62994-.9872.52284-1.98211.69735-3.06189.39279-2.43024-.27298-4.59517-2.15173-6.21794-6.93195-5.98748-14.82856,3.95847-8.59952,10.47037,2.33719,2.44331,3.3115,1.15871,5.8572,1.62636,1.31916.24233,10.7424,9.70753,12.41528,11.43855,3.0367,3.14224,6.07111,6.60355,8.86397,9.84491.02792,18.71166.00754,37.42325-.00882,56.13555-.00229,2.61637.00622,5.29002,0,7.91264-.01721,7.25623.05074,14.51992.02166,21.77082l-7.01379.46515c-.58414-4.25531-.56063-8.57564-.49149-12.8815.01968-1.2253.49324-2.36519.5093-3.7002.26265-21.84101-1.14886-43.63981-.09535-65.41104l-62.35694-63.00814c-.81524-1.7801.20085-3.60135.24201-5.35218.16254-6.91473.22855-14.25084-.53879-21.07023l11.75524-12.64817,6.07232.72664-.92652-7.45571c1.42266-.30954,2.63934-1.22683,3.73619-2.12906,7.88731-6.48779,14.77396-16.00146,22.77488-22.59433l30.72007-.43319,8.70665,8.05481v108.27766ZM181.7851,146.07135v31.57124l5.14736.00242-.48055-33.43414c-1.53095-3.15106-5.30859-4.04836-5.62429-7.93951-.39444-4.86161.91295-12.21932.97677-17.3086.06103-4.8665-.20095-9.66365-.47493-14.50966,2.56902-3.57587,5.86381-5.67758,5.10279-10.73799-.51824-3.44604-4.16193-7.72665-7.72815-8.17157-12.55647-1.56651-14.49872,16.356-2.5205,18.42166l.39707.53838c.63737,9.89926.26737,19.71568.05482,29.64073l-16.7584-15.74236c.17084-.96518-.51937-3.29603-.28651-3.92574.21468-.58056,2.42571-2.21521,3.11532-3.38664,5.73497-9.74193-8.29368-19.39702-14.79969-10.59016-4.60809,6.23773-.56642,15.1716,7.22081,14.93794-1.85863,6.99544.80843,6.08821,4.68072,9.58097,5.01857,4.52671,10.9127,9.6336,15.66044,14.27374,2.06274,2.01599,3.93662,4.91517,6.31692,6.77929ZM160.07364,158.99575c0-5.0146-4.06514-9.07974-9.07974-9.07974s-9.07974,4.06514-9.07974,9.07974,4.06514,9.07974,9.07974,9.07974,9.07974-4.06514,9.07974-9.07974Z"/>
      <path d="M212.18704,145.60363c7.26956-6.20337,13.40397-15.35947,20.80108-21.29391.75899-.60891,1.48719-1.47676,2.58248-1.38835-.78987,3.44337.21643,6.82364-.35201,10.17085l-15.45204,17.28459-.52502,26.4881c-7.21782,4.02859-11.92797,12.51424-18.27666,17.38483-.46909.35988-.59316.90724-1.40386.69624.0236-2.5721-.03251-5.15677-.02244-7.73408.12991-33.24699.24436-66.67582-.00461-100.0981l.69434-1.64427c2.3378-1.0727,5.72293-6.15816,7.72383-6.77556,3.0273-.9341,7.50653.22289,10.52988.27858,6.77643.12482,13.58047-.34633,20.34405.23572,4.82913,4.33112,9.63661,8.79233,14.29901,13.29656,4.09621,3.95726,7.21184,8.88832,12.63095,11.21144l-.1706,4.6283c6.76935,2.96627,11.32872,10.04383,17.26258,14.41106l-.74231,26.81784c-6.75921,5.54641-12.37333,12.29078-18.45543,18.49461-14.44837,14.73757-29.71703,28.64107-43.42613,44.05413.45758,4.35705-.02722,8.58733-.08312,12.98839-.02331,1.83466-.00511,3.7238-.02265,5.59946-.19906,21.28261.19029,42.58465.01998,63.86307h-7.01583l-.74454-85.84958c6.52561-7.66817,13.50871-15.22094,21.09759-21.73105,3.66279,1.21059,6.22048.01195,7.79086-3.42223,3.34994-7.32578-7.05193-13.99841-11.51854-6.84157-2.22508,3.56524.99665,7.03501.67996,7.45523-.65746.07027-1.33283.30579-1.84732.72657-7.6098,6.22379-14.27925,14.81688-21.07068,21.96475v83.48839c-.81625.20361-.93493-.33754-1.4063-.69858-1.28414-.98356-6.279-6.15875-6.53486-7.49667-.63922-3.34256-.08546-11.55574-.0294-15.444.01763-1.22292.49291-2.36533.5093-3.7002.24918-20.30038-.10236-40.65749-.18117-60.9413,4.17765-4.23248,8.65186-8.23191,12.79972-12.50102,2.49466-2.56758,4.97125-5.86571,7.47496-8.42759,2.27013-2.32287,3.86795-1.40045,4.22355-5.59862.63313-7.47463-.58851-15.74551.07799-23.30811l13.20991-14.85341,8.15632-.38732c5.31495,20.31821,33.68118,11.75223,27.86994-8.46231-3.2979-11.47183-20.61906-12.64727-26.32257-2.4942-1.00086,1.78168-1.24584,3.64288-2.30663,5.29252-2.57032.89172-5.02675.34565-7.60639-.00938,3.8006-4.12695.35147-10.43834,1.46417-15.60284l.38412-.55132c10.45507-1.40114,10.37148-17.24713-.19318-18.00264-10.63756-.76072-13.45572,11.73876-4.97832,17.16164l-.49213,4.76793c-5.94992,2.88703-9.92029,9.2709-15.35674,13.16725l-1.4343-27.79309c6.98609-.88318,11.0653-9.71566,6.5732-15.46971-7.07251-9.05937-21.57379.53142-14.88757,10.67808.89582,1.35945,3.39309,2.93674,3.6532,4.29806.4281,2.24047-.13537,5.92238-.00888,8.42788.23907,4.73546.4256,9.34166.46783,13.99208.04263,4.69375-.33378,5.20748,4.21782,7.03289l-9.80209,11.23778c-.36398,11.06991,1.27035,22.13384-.01723,33.16499l5.15296.26792v-32.50668ZM251.24603,159.09234c0-5.04536-4.09007-9.13543-9.13543-9.13543s-9.13543,4.09007-9.13543,9.13543,4.09007,9.13543,9.13543,9.13543,9.13543-4.09007,9.13543-9.13543Z"/>
      <path d="M295.44156,214.82649c-7.19461,3.63031-11.06955,11.52805-17.69612,15.97987l-.31349,26.34667c-6.93349,4.56592-12.31328,11.07939-18.22652,16.85263-4.16568,4.06706-8.59612,7.89689-12.64737,12.1419-1.31449,1.37736-6.75216,8.2398-7.71922,8.64898-2.04915.86703-3.69941-.26518-5.37033-.22303-1.55812.0393-7.57061,1.28626-8.44871.03126l.26058-40.2582c4.10267-.58831,8.4409.07643,12.3504-1.34972,1.06072-.76494-.16002-3.32507-1.35607-3.32507h-10.52375l-.46772-7.48355h15.66869c2.6678,0,4.2646-1.92536,2.33861-4.2095h-17.30572l-.70158-.70158v-7.01583c.41068-.66751.93249-.64552,1.61321-.7254,9.35529-1.09777,19.65944.55249,29.0302.52801,3.15353-.00824,6.84905-.92119,10.19461-.59186,6.83051-6.27754,13.53929-15.25165,20.67751-20.94975,2.95398-2.35802,4.91747-2.8018,8.64278-3.28414v9.5883ZM266.05175,249.41295c0-5.54146-4.49224-10.0337-10.0337-10.0337s-10.0337,4.49224-10.0337,10.0337,4.49224,10.0337,10.0337,10.0337,10.0337-4.49224,10.0337-10.0337ZM248.21233,269.80447c0-4.93108-3.99743-8.9285-8.9285-8.9285s-8.9285,3.99743-8.9285,8.9285,3.99743,8.9285,8.9285,8.9285,8.9285-3.99743,8.9285-8.9285Z"/>
      <path d="M154.65722,249.67179l-.41677,3.69512,14.92433,1.2516-.48048,39.95434c-3.26044-1.78972-11.23858,1.03986-13.81883-.4421-8.96444-9.95068-18.87636-18.83304-28.51777-28.07636-3.07886-2.95174-5.46895-7.20962-9.50417-8.49784l-.62783-26.27148c-6.29147-4.77421-10.78678-11.61229-17.11588-16.32146l-.34544-9.25882c.42099-.68401,2.47043-.0749,3.15003.13642,3.4284,1.06604,14.51514,12.50289,17.91984,15.75492,2.78944,2.66436,5.58926,5.45856,8.03529,8.43985l41.06144-.4785c.65521.0806-.23212.59708-.23212.70385v7.24969c-2.8404.91477-17.21426-.27248-18.28229,1.23492-.30926.43648-1.05043,3.30525.26041,2.97796l18.49028.46652-.4684,7.48138h-14.03166ZM146.93973,249.28105c0-5.46748-4.43227-9.89974-9.89974-9.89974s-9.89974,4.43227-9.89974,9.89974,4.43227,9.89974,9.89974,9.89974,9.89974-4.43227,9.89974-9.89974ZM163.25633,270.10937c0-4.91192-3.98189-8.89381-8.89381-8.89381s-8.89381,3.98189-8.89381,8.89381,3.98189,8.89381,8.89381,8.89381,8.89381-3.98189,8.89381-8.89381Z"/>
      <path d="M168.68888,216.46352v6.78197c0,.14513.64451.66124.466,1.16619-13.02816-.05267-26.06683-.0898-38.99916.8286l-24.81769-24.23707-6.13558-.88025-.60101-36.63424,9.51769-10.61607,58.68951,58.21203c-.44388.68001-.89752.64674-1.60482.72448-3.63556.39962-8.38724-.10875-12.20289-.04218-3.79513.06621-7.61612,1.63799-10.96738-1.64755,4.17321-4.60598.85532-13.85615-5.02117-15.06514-10.66352-2.19384-15.77151,12.76194-6.53794,17.76252,4.78498,2.59138,8.88217-2.23463,11.78816,3.64671h26.4263ZM104.71897,170.98699c1.63426,1.58914,8.33369,1.09049,9.14806-1.62578,1.76191-5.87678-9.0993-7.32164-9.70095-1.2497-.07864.79369-.01353,2.32469.5529,2.87548ZM125.17412,187.1396c0-5.25227-4.25781-9.51008-9.51008-9.51008s-9.51008,4.25781-9.51008,9.51008,4.25781,9.51008,9.51008,9.51008,9.51008-4.25781,9.51008-9.51008Z"/>
      <path d="M226.68642,211.7863l59.07292-58.88318,9.69058,9.63487-.47826,38.02353c-2.28978-.39481-5.3753-.57124-7.4621.7203-4.65264,2.87957-10.9621,11.9536-15.93416,15.40322-1.86175,2.64935-4.30851,4.73959-6.55123,7.03517-.38813.39728-.38991,1.16231-.45227,1.16231h-39.28865v-7.95128c1.68454.27179,3.26082-.38218,4.8916-.48705,3.61259-.23232,20.5261.72594,22.10576-.58369.68227-.56564,1.16844-2.78325,2.32348-3.07721,7.73666,3.08763,15.64401-2.64685,13.26621-11.0772-3.97015-14.07592-25.14096-3.28161-16.86075,8.90045-.09294.47742-3.48264,1.17976-3.97723,1.17976h-20.34591ZM283.62754,164.66072c-2.43811.44649-2.97193,1.95897-2.71851,4.34331.36396,3.42428,5.71509,4.22222,8.22109,2.56113,5.21238-3.45501-.75898-7.77312-5.50258-6.90444ZM287.12516,187.24005c0-5.28522-4.28451-9.56973-9.56973-9.56973s-9.56973,4.28451-9.56973,9.56973,4.28451,9.56973,9.56973,9.56973,9.56973-4.28451,9.56973-9.56973Z"/>
      <path d="M144.33887,133.75442c0,5.48921-4.44989,9.9391-9.9391,9.9391s-9.9391-4.44989-9.9391-9.9391,4.44989-9.9391,9.9391-9.9391,9.9391,4.44989,9.9391,9.9391ZM131.41519,130.54851c-4.40517,3.89571,1.71746,10.32249,6.18076,6.88088,4.62264-3.56448-1.40731-11.10227-6.18076-6.88088Z"/>
      <path d="M269.8486,133.67883c0,5.43963-4.40969,9.84933-9.84933,9.84933s-9.84933-4.40969-9.84933-9.84933,4.40969-9.84933,9.84933-9.84933,9.84933,4.40969,9.84933,9.84933ZM264.7308,133.73867c0-2.59201-2.10124-4.69326-4.69326-4.69326s-4.69326,2.10124-4.69326,4.69326,2.10124,4.69326,4.69326,4.69326,4.69326-2.10124,4.69326-4.69326Z"/>
      <path d="M258.36925,200.1895c5.52661-.52956,7.37593,7.66024,1.55935,9.05523-7.83172,1.87828-6.80571-8.55252-1.55935-9.05523Z"/>
      <path d="M214.86568,90.27087c6.57007-1.43138,7.36443,8.90679,1.26098,9.25519-4.69243.26786-6.12578-8.19532-1.26098-9.25519Z"/>
      <circle cx="134.76873" cy="204.7756" r="4.42219"/>
      <path d="M238.69428,101.52465c5.34834-.15784,4.88286,9.02965-.53928,8.79724-5.34819-.22924-5.13312-8.62984.53928-8.79724Z"/>
      <circle cx="235.43972" cy="180.24346" r="2.55632"/>
      <circle cx="158.37421" cy="179.86467" r="2.5132"/>
      <path d="M287.82574,277.36637c7.05298-1.601,7.0556,8.88555,0,7.28559-3.11874-.70722-3.09665-6.58266,0-7.28559Z"/>
      <path d="M181.7851,146.07135c-2.3803-1.86412-4.25419-4.76331-6.31692-6.77929-4.74774-4.64014-10.64187-9.74703-15.66044-14.27374-3.87228-3.49276-6.53935-2.58553-4.68072-9.58097-7.78724.23365-11.8289-8.70021-7.22081-14.93794,6.50601-8.80686,20.53466.84823,14.79969,10.59016-.68961,1.17143-2.90064,2.80609-3.11532,3.38664-.23286.62971.45735,2.96056.28651,3.92574l16.7584,15.74236c.21255-9.92505.58255-19.74146-.05482-29.64073l-.39707-.53838c-11.97822-2.06566-10.03596-19.98817,2.5205-18.42166,3.56622.44491,7.20991,4.72553,7.72815,8.17157.76102,5.06041-2.53376,7.16212-5.10279,10.73799.27398,4.84601.53596,9.64316.47493,14.50966-.06382,5.08928-1.37121,12.447-.97677,17.3086.3157,3.89114,4.09335,4.78845,5.62429,7.93951l.48055,33.43414-5.14736-.00242v-31.57124ZM181.63327,94.87924c0-2.49545-2.02296-4.51841-4.51841-4.51841s-4.51841,2.02296-4.51841,4.51841,2.02296,4.51841,4.51841,4.51841,4.51841-2.02296,4.51841-4.51841ZM152.01236,109.19323c4.62931,4.85328,9.80713-3.47242,4.96546-6.59929-4.16476-2.68971-8.17596,3.23347-4.96546,6.59929Z" fill="#fff"/>
      <path d="M160.07364,158.99575c0,5.0146-4.06514,9.07974-9.07974,9.07974s-9.07974-4.06514-9.07974-9.07974,4.06514-9.07974,9.07974-9.07974,9.07974,4.06514,9.07974,9.07974ZM149.85094,154.81524c-4.96108,1.09272-4.23476,10.34019,2.96127,8.11643,5.0062-1.54705,2.29048-9.27317-2.96127-8.11643Z" fill="#fff"/>
      <path d="M251.24603,159.09234c0,5.04536-4.09007,9.13543-9.13543,9.13543s-9.13543-4.09007-9.13543-9.13543,4.09007-9.13543,9.13543-9.13543,9.13543,4.09007,9.13543,9.13543ZM241.0626,154.79673c-5.27817.95293-3.91949,9.18865,1.23333,8.7972,6.58347-.50014,4.69563-9.86763-1.23333-8.7972Z" fill="#fff"/>
      <path d="M266.05175,249.41295c0,5.54146-4.49224,10.0337-10.0337,10.0337s-10.0337-4.49224-10.0337-10.0337,4.49224-10.0337,10.0337-10.0337,10.0337,4.49224,10.0337,10.0337ZM254.6135,244.15963c-4.68038,1.07005-4.62702,10.78303,1.71577,10.16487,6.83564-.6662,6.3211-12.0023-1.71577-10.16487Z" fill="#fff"/>
      <path d="M248.21233,269.80447c0,4.93108-3.99743,8.9285-8.9285,8.9285s-8.9285-3.99743-8.9285-8.9285,3.99743-8.9285,8.9285-8.9285,8.9285,3.99743,8.9285,8.9285ZM236.67377,272.89264c3.71361,3.71965,9.13953-2.01462,5.92736-5.69356-4.00528-4.58731-9.63928,1.97561-5.92736,5.69356Z" fill="#fff"/>
      <path d="M146.93973,249.28105c0,5.46748-4.43227,9.89974-9.89974,9.89974s-9.89974-4.43227-9.89974-9.89974,4.43227-9.89974,9.89974-9.89974,9.89974,4.43227,9.89974,9.89974ZM142.14663,249.22641c0-2.82051-2.28647-5.10698-5.10698-5.10698s-5.10698,2.28647-5.10698,5.10698,2.28647,5.10698,5.10698,5.10698,5.10698-2.28647,5.10698-5.10698Z" fill="#fff"/>
      <path d="M163.25633,270.10937c0,4.91192-3.98189,8.89381-8.89381,8.89381s-8.89381-3.98189-8.89381-8.89381,3.98189-8.89381,8.89381-8.89381,8.89381,3.98189,8.89381,8.89381ZM154.07428,266.12996c-5.37306.45429-4.24065,9.97812,1.54387,8.1204,4.58237-1.47164,3.0035-8.50488-1.54387-8.1204Z" fill="#fff"/>
      <path d="M125.17412,187.1396c0,5.25227-4.25781,9.51008-9.51008,9.51008s-9.51008-4.25781-9.51008-9.51008,4.25781-9.51008,9.51008-9.51008,9.51008,4.25781,9.51008,9.51008ZM112.24177,190.58908c4.31353,3.95108,11.42658-2.03305,7.1293-6.42496-4.77449-4.87962-11.0967,2.79092-7.1293,6.42496Z" fill="#fff"/>
      <path d="M104.71897,170.98699c-.56643-.55079-.63154-2.0818-.5529-2.87548.60165-6.07194,11.46287-4.62708,9.70095,1.2497-.81436,2.71628-7.51379,3.21493-9.14806,1.62578Z" fill="#fff"/>
      <path d="M287.12516,187.24005c0,5.28522-4.28451,9.56973-9.56973,9.56973s-9.56973-4.28451-9.56973-9.56973,4.28451-9.56973,9.56973-9.56973,9.56973,4.28451,9.56973,9.56973ZM280.78034,190.57713c4.43941-4.23522-2.17232-10.34323-6.16438-6.86651-4.89839,4.26604,1.59434,11.22636,6.16438,6.86651Z" fill="#fff"/>
      <path d="M283.62754,164.66072c4.7436-.86869,10.71496,3.44943,5.50258,6.90444-2.506,1.66109-7.85713.86316-8.22109-2.56113-.25343-2.38434.2804-3.89682,2.71851-4.34331Z" fill="#fff"/>
      <path d="M131.41519,130.54851c4.77344-4.22139,10.8034,3.3164,6.18076,6.88088-4.46329,3.44161-10.58593-2.98518-6.18076-6.88088Z" fill="#fff"/>
      <circle cx="260.03754" cy="133.73867" r="4.69326" fill="#fff"/>
      <circle cx="177.11487" cy="94.87924" r="4.51841"/>
      <path d="M152.01236,109.19323c-3.2105-3.36582.8007-9.289,4.96546-6.59929,4.84167,3.12687-.33615,11.45257-4.96546,6.59929Z"/>
      <path d="M149.85094,154.81524c5.25175-1.15674,7.96747,6.56938,2.96127,8.11643-7.19603,2.22376-7.92235-7.02371-2.96127-8.11643Z"/>
      <path d="M241.0626,154.79673c5.92896-1.07043,7.81679,8.29705,1.23333,8.7972-5.15281.39146-6.51149-7.84426-1.23333-8.7972Z"/>
      <path d="M254.6135,244.15963c8.03687-1.83743,8.5514,9.49867,1.71577,10.16487-6.34278.61816-6.39614-9.09482-1.71577-10.16487Z"/>
      <path d="M236.67377,272.89264c-3.71192-3.71796,1.92208-10.28088,5.92736-5.69356,3.21217,3.67895-2.21375,9.41321-5.92736,5.69356Z"/>
      <circle cx="137.03965" cy="249.22641" r="5.10698"/>
      <path d="M154.07428,266.12996c4.54738-.38448,6.12624,6.64876,1.54387,8.1204-5.78452,1.85772-6.91694-7.66611-1.54387-8.1204Z"/>
      <path d="M112.24177,190.58908c-3.9674-3.63404,2.35481-11.30457,7.1293-6.42496,4.29728,4.3919-2.81577,10.37604-7.1293,6.42496Z"/>
      <path d="M280.78034,190.57713c-4.57004,4.35985-11.06277-2.60047-6.16438-6.86651,3.99207-3.47672,10.60379,2.63129,6.16438,6.86651Z"/>
      <g>
        <path d="M316.55039,178.5162c9.36426,2.64588,9.84612,15.46673.00215,17.89912l-.06957,45.54515c.15414,1.38417,1.77309,1.15598,2.79493,1.88229,8.73307,6.20733,2.98339,19.82706-7.72364,16.14129-9.45589-3.25508-7.57212-15.82925,1.68791-17.59641l-.00053-46.23561c-7.75563-1.24359-8.79294-12.72046-2.62001-16.66739,1.39701-.89323,2.21849.34271,2.54503-2.11078-.81615-13.22182,1.26293-28.09071.04234-41.11666-.3797-4.05209-.51862-2.31849-2.67624-3.40049-6.86438-3.44232-6.80307-13.85145.34608-16.71717,11.97476-4.80005,18.52461,13.41272,5.82878,17.52188l-.15723,44.85478ZM319.59167,124.61805c0-2.76728-2.24332-5.0106-5.0106-5.0106s-5.0106,2.24332-5.0106,5.0106,2.24332,5.0106,5.0106,5.0106,5.0106-2.24332,5.0106-5.0106ZM313.07694,182.88674c-3.65597,1.0871-3.55971,9.52758,1.78481,9.75516,6.85337.29183,6.29891-12.15884-1.78481-9.75516ZM319.55013,251.74565c0-2.75547-2.23375-4.98922-4.98922-4.98922s-4.98922,2.23375-4.98922,4.98922,2.23375,4.98922,4.98922,4.98922,4.98922-2.23375,4.98922-4.98922Z" fill="#fff"/>
        <circle cx="314.58107" cy="124.61805" r="5.0106"/>
        <circle cx="314.56092" cy="251.74565" r="4.98922"/>
        <path d="M313.07694,182.88674c8.08372-2.40368,8.63818,10.04699,1.78481,9.75516-5.34453-.22758-5.44078-8.66806-1.78481-9.75516Z"/>
      </g>
    </g>
    <path d="M287.82503,91.67201c4.68137-1.40401,7.93833,6.19046,2.11899,7.30376-4.90487.93835-6.34157-6.03734-2.11899-7.30376Z"/>
    <g>
      <path d="M325.28538,48.20221c11.66166-.94228,15.38948,13.67994,6.32926,19.45027-5.15368,3.2823-10.93432-.10132-13.73862-4.81946-3.67656-6.1857.32628-14.05849,7.40936-14.63081ZM324.78108,52.8708c-6.41871,1.30706-4.7341,11.62718,2.23173,11.61872,8.11979-.00986,6.55327-13.40763-2.23173-11.61872Z" fill="#fff"/>
      <path d="M324.78108,52.8708c8.785-1.78891,10.35152,11.60885,2.23173,11.61872-6.96583.00846-8.65045-10.31166-2.23173-11.61872ZM328.66319,58.67131c0-1.16509-.94449-2.10959-2.10959-2.10959s-2.10959.94449-2.10959,2.10959.94449,2.10959,2.10959,2.10959,2.10959-.94449,2.10959-2.10959Z"/>
      <circle cx="326.5536" cy="58.67131" r="2.10959" fill="#fff"/>
    </g>
    <g>
      <path d="M77.24234,58.51286c0,5.61301-4.55024,10.16325-10.16325,10.16325s-10.16325-4.55024-10.16325-10.16325,4.55024-10.16325,10.16325-10.16325,10.16325,4.55024,10.16325,10.16325ZM65.65398,52.86051c-1.05835.24255-3.32213,2.3109-3.72032,3.29393-2.3074,5.6964,3.41863,10.71917,8.29912,7.3637,5.56888-3.82876,2.27999-12.22951-4.57881-10.65763Z" fill="#fff"/>
      <path d="M65.65398,52.86051c6.8588-1.57188,10.14769,6.82887,4.57881,10.65763-4.88049,3.35547-10.60653-1.6673-8.29912-7.3637.39819-.98303,2.66197-3.05138,3.72032-3.29393ZM69.76118,58.48765c0-1.18851-.96348-2.15198-2.15198-2.15198s-2.15198.96348-2.15198,2.15198.96348,2.15198,2.15198,2.15198,2.15198-.96348,2.15198-2.15198Z"/>
      <circle cx="67.6092" cy="58.48765" r="2.15198" fill="#fff"/>
    </g>
    <g>
      <path d="M77.2107,317.36857c0,5.61009-4.54788,10.15797-10.15797,10.15797s-10.15797-4.54788-10.15797-10.15797,4.54788-10.15797,10.15797-10.15797,10.15797,4.54788,10.15797,10.15797ZM71.25374,322.01677c3.68877-3.11744,1.30604-9.59637-2.99664-10.49639-4.94657-1.0347-7.24238,2.57475-6.68495,7.15275.53277,4.37542,6.66479,5.89319,9.68159,3.34363Z" fill="#fff"/>
      <path d="M71.25374,322.01677c-3.0168,2.54955-9.14882,1.03179-9.68159-3.34363-.55743-4.578,1.73839-8.18746,6.68495-7.15275,4.30268.90002,6.6854,7.37894,2.99664,10.49639ZM69.46532,315.68597c-5.41388-2.93828-4.73831,6.33896-.36416,3.36295l.36416-3.36295Z"/>
      <path d="M69.46532,315.68597l-.36416,3.36295c-4.37416,2.97601-5.04972-6.30123.36416-3.36295Z" fill="#fff"/>
    </g>
    <g>
      <path d="M336.75365,317.41051c0,5.57363-4.51832,10.09194-10.09194,10.09194s-10.09194-4.51832-10.09194-10.09194,4.51832-10.09194,10.09194-10.09194,10.09194,4.51832,10.09194,10.09194ZM326.19147,311.52167c-6.76591,1.0926-8.59076,12.78852,1.30157,11.59103,6.27323-.75939,7.00479-12.93239-1.30157-11.59103Z" fill="#fff"/>
      <path d="M326.19147,311.52167c8.30636-1.34136,7.5748,10.83164,1.30157,11.59103-9.89233,1.19749-8.06748-10.49843-1.30157-11.59103ZM325.70577,315.23594c-1.968.58791-1.69642,4.50455.35821,4.57886,3.03122.10963,3.49567-5.73015-.35821-4.57886Z"/>
      <path d="M325.70577,315.23594c3.85389-1.15129,3.38943,4.68849.35821,4.57886-2.05463-.07431-2.32621-3.99095-.35821-4.57886Z" fill="#fff"/>
    </g>
  </g>
</svg>